# Blender 3.6.0
# www.blender.org
mtllib navecita.mtl
o Cube
v -26.941668 -0.872981 52.163475
v -26.849401 -1.034730 -35.064495
v 26.933039 -0.850926 52.144573
v 26.849373 -1.034564 -35.061172
v -26.992956 -0.999950 -34.922901
v 26.992956 -0.999950 -34.922901
v -0.003208 -0.999981 -75.356339
v -0.002369 -0.999981 -75.356339
v 0.003199 -0.999931 -75.356339
v 0.002586 -0.999931 -75.356339
v -0.000012 -11.770817 -34.991776
v -0.000010 -11.842268 52.072685
v -0.002789 -0.999981 -75.356339
v -0.000019 16.601213 -40.221664
v -26.876076 11.472014 -34.902958
v -0.002767 -0.816762 -74.970032
v -0.281526 -0.840091 -74.834442
v 0.276007 -0.838790 -74.834442
v 26.859293 11.597671 -34.900108
v -26.630627 -1.000758 -35.319534
v 0.000000 4.195657 -34.922897
v 26.630577 -0.911820 -35.319534
v 0.206203 -0.978632 -74.964920
v -0.211737 -0.979326 -74.964920
v -0.002752 -1.192438 -74.685333
v -26.986988 -1.052263 0.050983
v 26.986988 -1.052263 0.050983
v 0.000000 -11.916351 0.134614
v -0.006465 33.055748 -22.459133
v -26.999422 25.736679 -21.799065
v 26.986490 25.862427 -21.799065
v -0.006465 33.055748 50.074421
v -26.999422 25.736679 50.734489
v 26.986490 25.862427 50.734489
v -16.184782 4.110241 78.227608
v 16.182192 4.110241 78.227608
v -0.001295 -2.537738 78.227608
v -0.005171 24.528187 76.907120
v -16.188658 20.140079 77.302864
v 16.178316 20.215469 77.302864
v -16.184782 4.110241 89.101242
v 16.182192 4.110241 89.101242
v -0.001295 -2.537738 89.101242
v -0.005171 24.528187 87.780762
v -16.188658 20.140079 88.176498
v 16.178316 20.215469 88.176498
v -13.669376 5.299556 89.019119
v 13.666184 5.299556 89.019119
v -0.001596 -0.315001 89.019119
v -0.004869 22.543552 87.903900
v -13.672650 18.837572 88.238129
v 13.662910 18.901243 88.238129
v -13.669376 5.299556 82.703049
v 13.666184 5.299556 82.703049
v -0.001596 -0.315001 82.703049
v -0.004869 22.543552 81.587830
v -13.672650 18.837572 81.922050
v 13.662910 18.901243 81.922050
v -13.669376 5.299556 82.703049
v 13.666184 5.299556 82.703049
v -0.001596 -0.315001 82.703049
v -0.004869 22.543552 81.587830
v -13.672650 18.837572 81.922050
v 13.662910 18.901243 81.922050
v -26.999422 25.736679 -21.799065
v -26.992956 11.462706 -34.922897
v -26.999422 25.736679 50.734489
v -26.992956 -1.000000 52.276894
v 102.793282 9.255555 48.440022
v 102.793282 11.547644 1.885311
v 102.793282 11.653333 -1.835328
v 102.793282 11.837982 -1.857409
v 102.793282 14.835737 0.072071
v -102.793282 11.650068 -1.835331
v -102.793282 11.547644 1.885306
v -102.793282 9.250967 48.440018
v -102.793282 14.715900 0.072068
v -102.793274 11.750448 -1.857412
v -0.000285 18.984756 -34.964901
v -24.610571 12.311740 -34.363098
v 24.610001 12.426389 -34.363098
v -0.006180 31.998762 -22.999512
v -24.616467 25.325748 -22.397707
v 24.604105 25.440395 -22.397707
v -27.264175 -0.957975 17.425632
v -27.264175 -0.961215 34.851265
v 27.264175 -0.954735 -11.601530
v 27.264175 -0.954735 -23.203058
v -27.264175 3.180585 -34.804588
v -27.264175 7.328048 -34.804588
v 27.264175 3.282152 -34.804588
v 27.264175 7.441706 -34.804588
v -26.992956 -1.004048 -34.922901
v -26.992956 -1.008096 -34.922897
v 26.992956 -0.974223 -34.922901
v 26.992956 -0.948445 -34.922897
v -27.264175 -0.954735 -23.203058
v -27.264175 -0.954735 -11.601529
v 27.264175 -0.961215 34.851265
v 27.264175 -0.957975 17.425632
v -26.992956 3.154235 23.210297
v -26.992956 7.308470 -5.856300
v 26.992956 3.196152 23.210297
v 26.992956 7.392303 -5.856300
v 102.793282 10.745020 17.425632
v 102.793282 9.839529 34.851265
v 102.793282 11.650511 -1.238275
v 102.793282 11.650511 -0.619137
v 102.793282 11.702065 -1.857410
v 102.793282 11.676289 -1.857411
v 102.793282 14.020847 -1.857409
v 102.793282 12.874344 -1.857409
v 102.793282 11.011808 34.232128
v 102.793282 13.089579 16.187359
v 53.216534 3.350803 0.787920
v 79.440109 7.701607 1.100952
v 79.440109 7.724186 42.552368
v 53.216534 2.746773 39.385239
v 53.216534 3.378636 -25.069784
v 79.440109 7.755157 -11.714896
v 53.216534 3.708220 -25.712408
v 79.440109 7.998858 -12.044487
v 53.216534 12.285796 -23.639235
v 79.440109 13.669981 -10.284347
v -102.793282 11.650511 -0.619142
v -102.793282 11.650511 -1.238279
v -102.793282 9.839529 34.851257
v -102.793282 10.745020 17.425629
v -102.793282 13.005745 16.187357
v -102.793282 10.969892 34.232124
v -102.793274 12.772778 -1.857412
v -102.793274 13.907188 -1.857412
v -102.793274 11.646463 -1.857415
v -102.793274 11.642416 -1.857414
v -53.216534 3.350803 0.787918
v -79.440109 7.701607 1.100948
v -79.440109 7.752708 -11.714900
v -53.216534 3.376520 -25.712412
v -53.216534 2.743332 39.385239
v -79.440109 7.720744 42.552368
v -53.216534 12.164480 -23.639235
v -79.440109 13.548666 -10.284348
v -53.216530 3.364377 -25.712406
v -79.440109 7.910839 -12.044489
v -53.216534 3.372473 -25.712410
v -53.216530 3.368425 -25.712408
v -79.440109 7.748992 -12.044493
v -79.440109 7.744945 -12.044492
v -53.216530 6.476533 -25.712406
v -53.216530 9.588690 -25.712406
v -79.440109 9.806927 -12.044489
v -79.440109 11.872957 -12.044489
v -53.216534 9.279477 1.769838
v -53.216534 5.858109 27.023367
v -79.440109 11.250484 9.395971
v -79.440109 8.561981 30.836433
v -53.216534 2.750000 34.851261
v -53.216534 3.063260 17.425631
v -79.440109 6.500000 34.851261
v -79.440109 7.126520 17.425629
v -53.216534 3.376520 -7.827901
v -53.216534 3.376520 -17.884514
v -79.440109 7.753041 -4.014833
v -79.440109 7.753041 -8.029665
v 53.216534 5.900025 27.023365
v 53.216534 9.363310 1.769835
v 79.440109 8.603899 30.836435
v 79.440109 11.334317 9.395973
v 53.216534 9.702347 -25.712406
v 53.216534 6.578100 -25.712406
v 79.440109 11.986614 -12.044487
v 79.440109 9.908493 -12.044487
v 53.216534 3.428075 -25.712410
v 53.216534 3.402298 -25.712410
v 79.440109 7.804595 -12.044489
v 79.440109 7.778818 -12.044489
v 53.216534 3.376520 -17.884512
v 53.216534 3.376520 -7.827899
v 79.440109 7.753041 -8.029661
v 79.440109 7.753041 -4.014831
v 53.216534 3.063260 17.425632
v 53.216534 2.750000 34.851265
v 79.440109 7.126520 17.425632
v 79.440109 6.500000 34.851265
v 2.807096 11.613451 41.766750
v 3.777774 11.613451 41.766750
v 3.292435 11.414080 41.766750
v 3.292319 12.225780 41.727150
v 2.806981 12.094182 41.739017
v 3.777658 12.096443 41.739017
v 3.777774 11.613451 41.766750
v 3.777658 12.096443 41.739017
vn -0.5771 -0.7201 -0.3853
vn 0.3731 -0.9278 0.0027
vn -0.8279 -0.0047 0.5608
vn 0.4906 -0.8075 -0.3276
vn -0.0597 -0.1902 -0.9799
vn -0.3729 -0.9279 0.0024
vn 0.2513 -0.8652 0.4339
vn -0.2477 -0.8660 0.4344
vn 0.8281 -0.0034 0.5606
vn -0.1790 0.2599 0.9489
vn 0.1780 0.2598 0.9491
vn 0.0605 -0.1897 -0.9800
vn -0.0074 -0.0119 -0.9999
vn 0.5240 -0.8186 -0.2351
vn -0.5221 -0.8198 -0.2354
vn 0.4583 -0.8347 0.3054
vn 0.0075 -0.0117 -0.9999
vn -0.7250 -0.4891 0.4849
vn -0.3714 -0.9285 -0.0029
vn 0.3714 -0.9285 -0.0029
vn 0.4544 -0.8382 -0.3014
vn 0.2983 -0.7392 -0.6039
vn -0.4522 -0.8393 -0.3018
vn -0.3614 -0.9010 -0.2401
vn 0.3640 -0.9000 -0.2399
vn 0.1437 -0.4505 0.8812
vn 0.0690 0.6748 -0.7347
vn 0.2575 0.9663 -0.0000
vn 0.2617 -0.9651 -0.0000
vn -0.9251 0.0196 0.3793
vn 0.2435 -0.9244 -0.2938
vn 0.9252 0.0196 0.3791
vn 0.3591 -0.8789 0.3139
vn -0.3584 -0.8790 0.3143
vn 0.2394 0.9253 0.2941
vn -0.3800 -0.9250 -0.0000
vn 1.0000 0.0002 -0.0000
vn 0.3800 -0.9250 -0.0000
vn -1.0000 -0.0002 -0.0000
vn -0.0152 0.0369 0.9992
vn 0.0054 0.0576 0.9983
vn -0.0079 0.0619 0.9980
vn 0.0152 0.0369 0.9992
vn -0.0055 0.0573 0.9983
vn -0.0076 -0.0619 -0.9981
vn -0.2617 0.9651 -0.0000
vn -0.3800 0.9250 -0.0000
vn -0.2575 -0.9663 -0.0000
vn 0.3800 0.9250 -0.0000
vn -0.0000 1.0000 -0.0000
vn -0.8745 -0.0280 -0.4842
vn -0.2295 -0.8961 -0.3799
vn 0.2335 -0.8952 -0.3796
vn 0.8745 -0.0277 -0.4842
vn 0.3453 0.8405 -0.4174
vn -0.3453 0.8405 -0.4175
vn 1.0000 -0.0008 -0.0003
vn -0.0715 -0.6751 0.7343
vn 1.0000 0.0003 -0.0000
vn -0.8999 -0.0253 -0.4353
vn -0.5864 0.8019 0.1146
vn 1.0000 -0.0000 -0.0000
vn 0.0999 -0.9945 0.0299
vn 0.1653 -0.9860 -0.0200
vn 0.2166 -0.9678 -0.1283
vn 0.3998 -0.0000 -0.9166
vn -0.1032 0.9883 0.1127
vn -1.0000 -0.0000 -0.0000
vn -0.1646 -0.9864 0.0002
vn -0.1584 -0.9865 -0.0427
vn 0.1029 0.9899 0.0978
vn -0.1855 0.8151 -0.5488
vn -0.3998 -0.0000 -0.9166
vn 0.1946 0.6639 -0.7220
vn 0.1975 -0.6634 0.7217
vn 0.2444 0.8852 -0.3959
vn 0.1416 0.4506 -0.8814
vn 0.2482 -0.8846 0.3949
vn 0.0715 -0.6747 0.7346
vn -0.2362 -0.9456 -0.2236
vn -0.4622 -0.0000 -0.8868
vn 0.1549 0.9875 -0.0287
vn 0.3315 0.0005 0.9435
vn -0.1526 -0.9880 0.0233
vn 0.4622 0.0005 0.8868
vn -0.1560 -0.9875 0.0205
vn 0.3998 0.0003 0.9166
vn -0.3339 0.2835 -0.8990
vn -0.3184 0.6348 -0.7040
vn -0.3302 0.0379 -0.9432
vn -0.3306 -0.0000 -0.9438
vn 0.0892 0.9815 0.1696
vn 0.1639 0.9734 0.1599
vn 0.0960 0.9871 0.1280
vn 0.1176 0.9835 0.1372
vn 0.1086 0.9876 0.1135
vn 0.1159 0.9849 0.1289
vn 0.1025 0.9886 0.1107
vn 0.1137 0.9865 0.1180
vn -0.1595 -0.9872 -0.0069
vn -0.1585 -0.9870 -0.0258
vn -0.1403 -0.9901 0.0058
vn -0.1473 -0.9890 -0.0090
vn -0.1576 -0.9827 0.0975
vn -0.1473 -0.9887 -0.0267
vn -0.1000 -0.9946 0.0295
vn -0.1472 -0.9882 -0.0434
vn -0.1647 -0.9863 0.0005
vn -0.1646 -0.9864 -0.0000
vn -0.1654 -0.9862 -0.0037
vn -0.1646 -0.9864 -0.0055
vn -0.1653 -0.9860 -0.0200
vn -0.0964 0.9869 0.1294
vn -0.1092 0.9873 0.1151
vn -0.0886 0.9813 0.1710
vn -0.1179 0.9833 0.1387
vn -0.1642 0.9729 0.1630
vn -0.1162 0.9846 0.1306
vn -0.1035 0.9895 0.1006
vn -0.1141 0.9862 0.1201
vn 0.3298 0.0392 -0.9432
vn 0.4622 -0.0000 -0.8868
vn 0.3338 0.2838 -0.8989
vn 0.3306 -0.0000 -0.9438
vn 0.3190 0.6334 -0.7050
vn 0.1865 0.8135 -0.5508
vn 0.2011 -0.9739 -0.1050
vn 0.1883 -0.9809 -0.0477
vn 0.3628 -0.5378 -0.7610
vn 0.3314 0.0001 -0.9435
vn 0.1654 -0.9862 -0.0037
vn 0.1646 -0.9864 -0.0055
vn 0.1647 -0.9863 0.0004
vn 0.1646 -0.9864 -0.0000
vn 0.1648 -0.9863 -0.0004
vn 0.1650 -0.9863 -0.0011
vn 0.1402 -0.9901 0.0070
vn 0.1576 -0.9826 0.0981
vn 0.1595 -0.9872 -0.0069
vn 0.1473 -0.9890 -0.0090
vn 0.1585 -0.9870 -0.0258
vn 0.1473 -0.9887 -0.0267
vn 0.1584 -0.9865 -0.0427
vn 0.1472 -0.9882 -0.0434
vn 0.2585 -0.9298 0.2621
vn 0.3699 -0.9006 -0.2283
vn 0.9715 -0.0134 -0.2367
vn -0.9263 -0.0219 -0.3762
vn 0.2561 0.9407 -0.2223
vn -0.3644 -0.8871 -0.2835
vn 0.0001 -0.0520 -0.9986
vt 0.375000 0.250000
vt 0.250000 0.625000
vt 0.375000 0.625000
vt 0.375000 0.666667
vt 0.375000 0.708333
vt 0.375000 0.750000
vt 0.250000 0.750000
vt 0.375000 0.500000
vt 0.250000 0.500000
vt 0.125000 0.500000
vt 0.125000 0.625000
vt 0.125000 0.750000
vt 0.125000 0.708333
vt 0.125000 0.666667
vt 0.000000 0.000000
vt 0.125000 0.583333
vt 0.125000 0.541667
vt 0.375000 0.541667
vt 0.375000 0.583333
s 0
usemtl Material
f 2/1/1 5/1/1 9/1/1 8/1/1
f 28/2/2 27/3/2 100/4/2 99/5/2 3/6/2 12/7/2
f 23/8/3 22/8/3 91/8/3 92/8/3 19/8/3 18/8/3
f 6/8/4 4/8/4 7/8/4 10/8/4
f 21/9/5 20/10/5 89/10/5 90/10/5 15/10/5 14/9/5
f 26/11/6 28/2/6 12/7/6 1/12/6 86/13/6 85/14/6
f 14/9/7 15/10/7 17/10/7 16/9/7
f 19/8/8 14/9/8 16/9/8 18/8/8
f 20/1/9 24/1/9 17/1/9 15/1/9 90/1/9 89/1/9
f 24/15/10 25/15/10 16/15/10 17/15/10
f 25/15/11 23/15/11 18/15/11 16/15/11
f 22/8/12 21/9/12 14/9/12 19/8/12 92/8/12 91/8/12
f 4/8/13 11/9/13 21/9/13 22/8/13 96/8/13 95/8/13
f 13/15/14 7/15/14 23/15/14 25/15/14
f 8/15/15 13/15/15 25/15/15 24/15/15
f 2/1/16 8/1/16 24/1/16 20/1/16 94/1/16 93/1/16
f 11/9/17 2/10/17 93/10/17 94/10/17 20/10/17 21/9/17
f 7/8/18 4/8/18 95/8/18 96/8/18 22/8/18 23/8/18
f 2/10/19 11/9/19 28/2/19 26/11/19 98/16/19 97/17/19
f 11/9/20 4/8/20 88/18/20 87/19/20 27/3/20 28/2/20
f 23/8/21 22/8/21 25/15/21
f 22/8/22 96/8/22 95/8/22 4/8/22 11/9/22
f 25/15/23 20/15/23 24/15/23
f 25/15/24 11/15/24 20/15/24
f 25/15/25 22/8/25 11/9/25
f 29/9/26 30/10/26 83/10/26 82/9/26
f 31/8/27 19/15/27 81/15/27 84/8/27
f 31/8/28 29/9/28 32/9/28 34/8/28
f 30/10/29 29/9/29 32/9/29 33/10/29
f 33/15/30 1/15/30 35/15/30 39/15/30
f 33/10/31 32/9/31 38/9/31 39/10/31
f 3/15/32 34/15/32 40/15/32 36/15/32
f 12/7/33 3/6/33 36/6/33 37/7/33
f 1/12/34 12/7/34 37/7/34 35/12/34
f 34/8/35 32/9/35 38/9/35 40/8/35
f 35/12/36 37/7/36 43/7/36 41/12/36
f 36/15/37 40/15/37 46/15/37 42/15/37
f 39/10/29 38/9/29 44/9/29 45/10/29
f 37/7/38 36/6/38 42/6/38 43/7/38
f 39/15/39 35/15/39 41/15/39 45/15/39
f 40/8/28 38/9/28 44/9/28 46/8/28
f 43/7/40 42/6/40 48/6/40 49/7/40
f 45/15/41 41/15/41 47/15/41 51/15/41
f 46/8/42 44/9/42 50/9/42 52/8/42
f 41/12/43 43/7/43 49/7/43 47/12/43
f 42/15/44 46/15/44 52/15/44 48/15/44
f 45/10/45 44/9/45 50/9/45 51/10/45
f 48/15/39 52/15/39 58/15/39 54/15/39
f 51/10/46 50/9/46 56/9/46 57/10/46
f 49/7/47 48/6/47 54/6/47 55/7/47
f 51/15/37 47/15/37 53/15/37 57/15/37
f 52/8/48 50/9/48 56/9/48 58/8/48
f 47/12/49 49/7/49 55/7/49 53/12/49
f 57/15/50 53/15/50 59/15/50 63/15/50
f 58/8/50 56/9/50 62/9/50 64/8/50
f 53/12/50 55/7/50 61/7/50 59/12/50
f 54/15/50 58/15/50 64/15/50 60/15/50
f 57/10/50 56/9/50 62/9/50 63/10/50
f 55/7/50 54/6/50 60/6/50 61/7/50
f 60/15/51 64/15/51 40/15/51 36/15/51
f 64/8/52 62/9/52 38/9/52 40/8/52
f 62/9/53 63/10/53 39/10/53 38/9/53
f 63/15/54 59/15/54 35/15/54 39/15/54
f 59/12/55 61/7/55 37/7/55 35/12/55
f 61/7/56 60/6/56 36/6/56 37/7/56
f 31/8/57 34/8/57 3/15/57 103/15/57 104/15/57 19/15/57
f 15/10/58 30/10/58 65/10/58 66/10/58
f 65/10/59 67/10/59 68/15/59 66/15/59
f 33/15/60 1/15/60 68/15/60 67/15/60
f 30/10/50 33/10/50 67/10/50 65/10/50
f 1/15/61 101/15/61 102/15/61 15/15/61 66/15/61 68/15/61
f 74/15/68 126/15/68 125/15/68 75/15/68 128/15/68 127/15/68 76/15/68 130/15/68 129/15/68 77/15/68 132/15/68 131/15/68 78/15/68 134/15/68 133/15/68
f 19/8/76 14/9/76 79/9/76 81/8/76
f 29/9/77 31/8/77 84/8/77 82/9/77
f 15/10/78 14/9/78 79/9/78 80/10/78
f 30/10/79 15/10/79 80/10/79 83/10/79
usemtl Material.002
f 81/8/74 79/9/74 82/9/74 84/8/74
f 80/10/75 79/9/75 82/9/75 83/10/75
usemtl Material.003
f 69/15/62 106/15/62 105/15/62 70/15/62 108/15/62 107/15/62 71/15/62 110/15/62 109/15/62 72/15/62 112/15/62 111/15/62 73/15/62 114/15/62 113/15/62
f 184/15/63 106/15/63 69/15/63 117/15/63
f 180/15/64 108/15/64 70/15/64 116/15/64
f 176/15/65 110/15/65 71/15/65 120/15/65
f 172/15/66 112/15/66 72/15/66 122/15/66
f 168/15/67 114/15/67 73/15/67 124/15/67
f 164/15/69 126/15/69 74/15/69 137/15/69
f 160/15/70 128/15/70 75/15/70 136/15/70
f 156/15/71 130/15/71 76/15/71 140/15/71
f 152/15/72 132/15/72 77/15/72 142/15/72
f 148/15/73 134/15/73 78/15/73 144/15/73
f 94/15/80 146/15/80 143/15/80 20/15/80
f 146/15/81 148/15/81 144/15/81 143/15/81
f 2/15/82 138/15/82 145/15/82 93/15/82
f 93/15/83 145/15/83 146/15/83 94/15/83
f 138/15/84 137/15/84 147/15/84 145/15/84
f 145/15/85 147/15/85 148/15/85 146/15/85
f 137/15/86 74/15/86 133/15/86 147/15/86
f 147/15/87 133/15/87 134/15/87 148/15/87
f 90/15/88 150/15/88 141/15/88 15/15/88
f 150/15/89 152/15/89 142/15/89 141/15/89
f 20/15/90 143/15/90 149/15/90 89/15/90
f 89/15/91 149/15/91 150/15/91 90/15/91
f 143/15/81 144/15/81 151/15/81 149/15/81
f 149/15/81 151/15/81 152/15/81 150/15/81
f 144/15/73 78/15/73 131/15/73 151/15/73
f 151/15/73 131/15/73 132/15/73 152/15/73
f 101/15/92 154/15/92 139/15/92 1/15/92
f 154/15/93 156/15/93 140/15/93 139/15/93
f 15/15/94 141/15/94 153/15/94 102/15/94
f 102/15/95 153/15/95 154/15/95 101/15/95
f 141/15/96 142/15/96 155/15/96 153/15/96
f 153/15/97 155/15/97 156/15/97 154/15/97
f 142/15/98 77/15/98 129/15/98 155/15/98
f 155/15/99 129/15/99 130/15/99 156/15/99
f 85/15/100 158/15/100 135/15/100 26/15/100
f 158/15/101 160/15/101 136/15/101 135/15/101
f 1/15/102 139/15/102 157/15/102 86/15/102
f 86/15/103 157/15/103 158/15/103 85/15/103
f 139/15/104 140/15/104 159/15/104 157/15/104
f 157/15/105 159/15/105 160/15/105 158/15/105
f 140/15/106 76/15/106 127/15/106 159/15/106
f 159/15/107 127/15/107 128/15/107 160/15/107
f 97/15/108 162/15/108 138/15/108 2/15/108
f 162/15/109 164/15/109 137/15/109 138/15/109
f 26/15/110 135/15/110 161/15/110 98/15/110
f 98/15/109 161/15/109 162/15/109 97/15/109
f 135/15/111 136/15/111 163/15/111 161/15/111
f 161/15/109 163/15/109 164/15/109 162/15/109
f 136/15/112 75/15/112 125/15/112 163/15/112
f 163/15/109 125/15/109 126/15/109 164/15/109
f 104/15/113 166/15/113 123/15/113 19/15/113
f 166/15/114 168/15/114 124/15/114 123/15/114
f 3/15/115 118/15/115 165/15/115 103/15/115
f 103/15/116 165/15/116 166/15/116 104/15/116
f 118/15/117 117/15/117 167/15/117 165/15/117
f 165/15/118 167/15/118 168/15/118 166/15/118
f 117/15/119 69/15/119 113/15/119 167/15/119
f 167/15/120 113/15/120 114/15/120 168/15/120
f 91/15/121 170/15/121 121/15/121 22/15/121
f 170/15/122 172/15/122 122/15/122 121/15/122
f 19/15/123 123/15/123 169/15/123 92/15/123
f 92/15/124 169/15/124 170/15/124 91/15/124
f 123/15/125 124/15/125 171/15/125 169/15/125
f 169/15/122 171/15/122 172/15/122 170/15/122
f 124/15/126 73/15/126 111/15/126 171/15/126
f 171/15/66 111/15/66 112/15/66 172/15/66
f 95/15/127 174/15/127 119/15/127 4/15/127
f 174/15/128 176/15/128 120/15/128 119/15/128
f 22/15/129 121/15/129 173/15/129 96/15/129
f 96/15/130 173/15/130 174/15/130 95/15/130
f 121/15/122 122/15/122 175/15/122 173/15/122
f 173/15/122 175/15/122 176/15/122 174/15/122
f 122/15/66 72/15/66 109/15/66 175/15/66
f 175/15/66 109/15/66 110/15/66 176/15/66
f 87/15/131 178/15/131 115/15/131 27/15/131
f 178/15/132 180/15/132 116/15/132 115/15/132
f 4/15/133 119/15/133 177/15/133 88/15/133
f 88/15/134 177/15/134 178/15/134 87/15/134
f 119/15/135 120/15/135 179/15/135 177/15/135
f 177/15/134 179/15/134 180/15/134 178/15/134
f 120/15/136 71/15/136 107/15/136 179/15/136
f 179/15/134 107/15/134 108/15/134 180/15/134
f 99/15/137 182/15/137 118/15/137 3/15/137
f 182/15/138 184/15/138 117/15/138 118/15/138
f 27/15/139 115/15/139 181/15/139 100/15/139
f 100/15/140 181/15/140 182/15/140 99/15/140
f 115/15/141 116/15/141 183/15/141 181/15/141
f 181/15/142 183/15/142 184/15/142 182/15/142
f 116/15/143 70/15/143 105/15/143 183/15/143
f 183/15/144 105/15/144 106/15/144 184/15/144
usemtl Material.004
f 56/9/145 57/10/145 189/10/145 188/9/145
f 54/6/146 55/7/146 187/7/146 186/6/146
f 64/15/147 60/15/147 191/15/147 192/15/147
f 53/15/148 57/15/148 189/15/148 185/15/148
f 56/9/149 58/8/149 190/8/149 188/9/149
f 55/7/150 53/12/150 185/12/150 187/7/150
f 187/7/151 185/12/151 189/15/151 188/9/151 190/8/151 192/15/151 191/15/151 186/6/151
